<mxfile host="app.diagrams.net" agent="Mozilla/5.0 (Windows NT 10.0; Win64; x64) AppleWebKit/537.36 (KHTML, like Gecko) Chrome/130.0.0.0 Safari/537.36" version="24.8.6">
  <diagram id="C5RBs43oDa-KdzZeNtuy" name="Page-1">
    <mxGraphModel dx="1434" dy="686" grid="1" gridSize="10" guides="1" tooltips="1" connect="1" arrows="1" fold="1" page="1" pageScale="1" pageWidth="827" pageHeight="1169" math="0" shadow="0">
      <root>
        <mxCell id="WIyWlLk6GJQsqaUBKTNV-0" />
        <mxCell id="WIyWlLk6GJQsqaUBKTNV-1" parent="WIyWlLk6GJQsqaUBKTNV-0" />
        <mxCell id="invOCkcIcbLmiKsoY9c3-17" value="" style="edgeStyle=orthogonalEdgeStyle;rounded=0;orthogonalLoop=1;jettySize=auto;html=1;" edge="1" parent="WIyWlLk6GJQsqaUBKTNV-1" source="invOCkcIcbLmiKsoY9c3-0" target="invOCkcIcbLmiKsoY9c3-4">
          <mxGeometry relative="1" as="geometry" />
        </mxCell>
        <mxCell id="invOCkcIcbLmiKsoY9c3-0" value="begin render()" style="strokeWidth=2;html=1;shape=mxgraph.flowchart.start_1;whiteSpace=wrap;fillColor=#f8cecc;strokeColor=#b85450;" vertex="1" parent="WIyWlLk6GJQsqaUBKTNV-1">
          <mxGeometry x="320" y="40" width="110" height="60" as="geometry" />
        </mxCell>
        <mxCell id="invOCkcIcbLmiKsoY9c3-9" value="" style="edgeStyle=orthogonalEdgeStyle;rounded=0;orthogonalLoop=1;jettySize=auto;html=1;" edge="1" parent="WIyWlLk6GJQsqaUBKTNV-1" source="invOCkcIcbLmiKsoY9c3-4" target="invOCkcIcbLmiKsoY9c3-5">
          <mxGeometry relative="1" as="geometry" />
        </mxCell>
        <mxCell id="invOCkcIcbLmiKsoY9c3-14" value="Yes" style="edgeLabel;html=1;align=center;verticalAlign=middle;resizable=0;points=[];" vertex="1" connectable="0" parent="invOCkcIcbLmiKsoY9c3-9">
          <mxGeometry x="-0.44" y="1" relative="1" as="geometry">
            <mxPoint as="offset" />
          </mxGeometry>
        </mxCell>
        <mxCell id="invOCkcIcbLmiKsoY9c3-16" value="" style="edgeStyle=orthogonalEdgeStyle;rounded=0;orthogonalLoop=1;jettySize=auto;html=1;" edge="1" parent="WIyWlLk6GJQsqaUBKTNV-1" source="invOCkcIcbLmiKsoY9c3-4" target="invOCkcIcbLmiKsoY9c3-15">
          <mxGeometry relative="1" as="geometry" />
        </mxCell>
        <mxCell id="invOCkcIcbLmiKsoY9c3-4" value="Iterate through&lt;div&gt;every game object.&lt;/div&gt;" style="verticalLabelPosition=middle;verticalAlign=middle;html=1;shape=hexagon;perimeter=hexagonPerimeter2;arcSize=6;size=0.27;labelPosition=center;align=center;whiteSpace=wrap;fillColor=#fff2cc;strokeColor=#d6b656;" vertex="1" parent="WIyWlLk6GJQsqaUBKTNV-1">
          <mxGeometry x="308.75" y="145" width="132.5" height="70" as="geometry" />
        </mxCell>
        <mxCell id="invOCkcIcbLmiKsoY9c3-10" value="" style="edgeStyle=orthogonalEdgeStyle;rounded=0;orthogonalLoop=1;jettySize=auto;html=1;" edge="1" parent="WIyWlLk6GJQsqaUBKTNV-1" source="invOCkcIcbLmiKsoY9c3-5" target="invOCkcIcbLmiKsoY9c3-6">
          <mxGeometry relative="1" as="geometry" />
        </mxCell>
        <mxCell id="invOCkcIcbLmiKsoY9c3-5" value="Camera::isInFrame(game object)" style="verticalLabelPosition=middle;verticalAlign=middle;html=1;shape=process;whiteSpace=wrap;rounded=1;size=0.14;arcSize=6;labelPosition=center;align=center;fillColor=#b0e3e6;strokeColor=#0e8088;" vertex="1" parent="WIyWlLk6GJQsqaUBKTNV-1">
          <mxGeometry x="245" y="260" width="260" height="60" as="geometry" />
        </mxCell>
        <mxCell id="invOCkcIcbLmiKsoY9c3-7" style="edgeStyle=orthogonalEdgeStyle;rounded=0;orthogonalLoop=1;jettySize=auto;html=1;entryX=1;entryY=0.5;entryDx=0;entryDy=0;" edge="1" parent="WIyWlLk6GJQsqaUBKTNV-1" source="invOCkcIcbLmiKsoY9c3-6" target="invOCkcIcbLmiKsoY9c3-4">
          <mxGeometry relative="1" as="geometry">
            <Array as="points">
              <mxPoint x="580" y="420" />
              <mxPoint x="580" y="180" />
            </Array>
          </mxGeometry>
        </mxCell>
        <mxCell id="invOCkcIcbLmiKsoY9c3-8" value="No" style="edgeLabel;html=1;align=center;verticalAlign=middle;resizable=0;points=[];" vertex="1" connectable="0" parent="invOCkcIcbLmiKsoY9c3-7">
          <mxGeometry x="-0.9277" y="2" relative="1" as="geometry">
            <mxPoint as="offset" />
          </mxGeometry>
        </mxCell>
        <mxCell id="invOCkcIcbLmiKsoY9c3-12" value="" style="edgeStyle=orthogonalEdgeStyle;rounded=0;orthogonalLoop=1;jettySize=auto;html=1;" edge="1" parent="WIyWlLk6GJQsqaUBKTNV-1" source="invOCkcIcbLmiKsoY9c3-6" target="invOCkcIcbLmiKsoY9c3-11">
          <mxGeometry relative="1" as="geometry" />
        </mxCell>
        <mxCell id="invOCkcIcbLmiKsoY9c3-6" value="Is the game&lt;div&gt;&amp;nbsp;object in frame?&lt;/div&gt;" style="strokeWidth=2;html=1;shape=mxgraph.flowchart.decision;whiteSpace=wrap;fillColor=#dae8fc;strokeColor=#6c8ebf;" vertex="1" parent="WIyWlLk6GJQsqaUBKTNV-1">
          <mxGeometry x="310" y="360" width="130" height="120" as="geometry" />
        </mxCell>
        <mxCell id="invOCkcIcbLmiKsoY9c3-13" style="edgeStyle=orthogonalEdgeStyle;rounded=0;orthogonalLoop=1;jettySize=auto;html=1;" edge="1" parent="WIyWlLk6GJQsqaUBKTNV-1" source="invOCkcIcbLmiKsoY9c3-11">
          <mxGeometry relative="1" as="geometry">
            <mxPoint x="580" y="420" as="targetPoint" />
          </mxGeometry>
        </mxCell>
        <mxCell id="invOCkcIcbLmiKsoY9c3-11" value="Camera::getScreenPosition(game object)" style="verticalLabelPosition=middle;verticalAlign=middle;html=1;shape=process;whiteSpace=wrap;rounded=1;size=0.14;arcSize=6;labelPosition=center;align=center;fillColor=#b0e3e6;strokeColor=#0e8088;" vertex="1" parent="WIyWlLk6GJQsqaUBKTNV-1">
          <mxGeometry x="212.5" y="524.5" width="325" height="60" as="geometry" />
        </mxCell>
        <mxCell id="invOCkcIcbLmiKsoY9c3-15" value="return" style="strokeWidth=2;html=1;shape=mxgraph.flowchart.start_1;whiteSpace=wrap;fillColor=#f8cecc;strokeColor=#b85450;" vertex="1" parent="WIyWlLk6GJQsqaUBKTNV-1">
          <mxGeometry x="170" y="150" width="100" height="60" as="geometry" />
        </mxCell>
      </root>
    </mxGraphModel>
  </diagram>
</mxfile>
